<svg width="92" height="90" viewBox="0 0 92 90" fill="none" xmlns="http://www.w3.org/2000/svg">
<path fill-rule="evenodd" clip-rule="evenodd" d="M47.0378 0.011385C34.9219 -0.25445 22.7191 4.13506 13.4731 13.1801C-4.49103 30.7537 -4.49103 59.2462 13.4731 76.8198C31.4372 94.3934 60.5628 94.3934 78.5269 76.8198C87.773 67.7747 92.2601 55.8372 91.9884 43.9846C91.9061 40.3974 91.3879 36.8181 90.4338 33.329C87.8293 35.7696 85.1357 37.9242 82.4149 39.7914C76.1984 44.0576 69.8401 46.824 64.0785 48.0765C55.311 49.9825 49.2919 48.2203 46.0001 45C42.7083 41.7798 40.9069 35.8915 42.8552 27.3146C44.1356 21.6782 46.9634 15.458 51.3245 9.37657C53.2332 6.71496 55.4354 4.07991 57.9303 1.53205C54.3637 0.59873 50.7047 0.0918438 47.0378 0.011385ZM72.0215 70.4558C77.777 64.8254 81.2276 57.794 82.3731 50.4838C66.0609 59.6896 48.9348 60.5989 39.4947 51.364C30.0546 42.1291 30.9841 25.3753 40.3944 9.41766C32.9217 10.5383 25.734 13.9137 19.9785 19.5441C5.60718 33.603 5.60718 56.3969 19.9785 70.4558C34.3498 84.5147 57.6502 84.5147 72.0215 70.4558Z" fill="white"/>
</svg>
